<svg version="1.1" id="Layer_1" xmlns="http://www.w3.org/2000/svg" xmlns:xlink="http://www.w3.org/1999/xlink" x="0px" y="0px"
	 width="100%" viewBox="0 0 128 128" enable-background="new 0 0 128 128" xml:space="preserve">
<path fill="#6590C9" opacity="1.000000" stroke="none" 
	d="
M1.000000,81.000000 
	C1.000000,72.312439 1.000000,63.624874 1.231400,54.343056 
	C1.308533,53.499203 1.154267,53.249599 1.000000,53.000000 
	C1.000000,52.250000 1.000000,51.500000 1.352508,50.624641 
	C1.957712,50.289452 2.370323,50.122841 2.440393,49.863640 
	C9.480660,23.820200 26.399786,8.339706 52.644634,2.742869 
	C53.195271,2.625442 53.552528,1.601201 54.000000,0.999999 
	C60.354397,1.000000 66.708794,1.000000 73.298218,1.370512 
	C76.415016,2.580869 79.296806,3.420715 81.940765,4.564096 
	C80.586128,5.181890 79.486595,5.673929 78.349960,5.784509 
	C46.659225,8.867594 12.813610,40.613594 6.905977,73.762077 
	C6.014864,78.762207 5.654283,83.856903 4.755862,88.667740 
	C3.308954,85.951752 2.154477,83.475876 1.000000,81.000000 
z"/>
<path fill="#6590C9" opacity="1.000000" stroke="none" 
	d="
M56.000000,129.000000 
	C54.611111,129.000000 53.222221,129.000000 51.648643,128.647247 
	C49.242371,127.456398 47.020790,126.618301 45.080025,125.497154 
	C47.156494,124.890541 48.939693,124.411514 50.749653,124.266487 
	C83.819061,121.616684 119.364372,87.913811 124.071205,52.864410 
	C124.220261,51.754436 125.141579,50.748173 125.911697,50.064606 
	C126.443260,52.361694 126.626770,54.327473 127.159210,56.193699 
	C127.364250,56.912361 128.362930,57.404598 129.000000,58.000000 
	C129.000000,62.356899 129.000000,66.713799 128.615295,71.320038 
	C127.830811,72.741470 127.363922,73.895515 127.043045,75.088821 
	C125.774452,79.806664 125.115562,84.778122 123.214630,89.220825 
	C114.777306,108.939888 100.415039,122.020096 79.287018,127.199699 
	C78.743553,127.332924 78.423988,128.379425 78.000000,129.000000 
	C76.611107,129.000000 75.222221,129.000000 73.520554,128.737701 
	C72.805191,128.650269 72.402596,128.825134 72.000000,129.000000 
	C67.310745,129.000000 62.621487,129.000000 57.358772,128.742004 
	C56.523540,128.656006 56.261772,128.828003 56.000000,129.000000 
z"/>
<!-- <path fill="white" opacity="1.000000" stroke="none" 
	d="
M78.468658,129.000000 
	C78.423988,128.379425 78.743553,127.332924 79.287018,127.199699 
	C100.415039,122.020096 114.777306,108.939888 123.214630,89.220825 
	C125.115562,84.778122 125.774452,79.806664 127.043045,75.088821 
	C127.363922,73.895515 127.830811,72.741470 128.615295,71.784691 
	C129.000000,90.922707 129.000000,109.845406 129.000000,129.000000 
	C112.313156,129.000000 95.625237,129.000000 78.468658,129.000000 
z"/> -->
<!-- <path fill="white" opacity="1.000000" stroke="none" 
	d="
M53.531342,0.999999 
	C53.552528,1.601201 53.195271,2.625442 52.644634,2.742869 
	C26.399786,8.339706 9.480660,23.820200 2.440393,49.863640 
	C2.370323,50.122841 1.957712,50.289452 1.352508,50.249641 
	C1.000000,33.737038 1.000000,17.474075 1.000000,1.000000 
	C18.353657,1.000000 35.708172,1.000000 53.531342,0.999999 
z"/> -->
<!-- <path fill="white" opacity="1.000000" stroke="none" 
	d="
M129.000000,57.531342 
	C128.362930,57.404598 127.364250,56.912361 127.159210,56.193699 
	C126.626770,54.327473 126.443260,52.361694 125.967674,49.669270 
	C125.193512,43.890507 124.859184,38.821930 123.891060,33.877449 
	C121.879494,23.603737 115.975182,15.931297 107.220764,10.346679 
	C99.563141,5.461731 90.798126,5.168592 82.178589,4.260560 
	C79.296806,3.420715 76.415016,2.580869 73.766617,1.370512 
	C92.261429,1.000000 110.522858,1.000000 129.000000,1.000000 
	C129.000000,19.687008 129.000000,38.374844 129.000000,57.531342 
z"/> -->
<!-- <path fill="white" opacity="1.000000" stroke="none" 
	d="
M44.799206,125.780212 
	C47.020790,126.618301 49.242371,127.456398 51.231976,128.647247 
	C34.408089,129.000000 17.816175,129.000000 1.000000,129.000000 
	C1.000000,113.313148 1.000000,97.625237 1.000000,81.468658 
	C2.154477,83.475876 3.308954,85.951752 4.836652,89.070312 
	C5.484509,90.480751 5.936111,91.232430 6.007576,92.018654 
	C7.354264,106.834488 16.398703,118.433037 30.522757,122.804276 
	C35.145771,124.235046 40.032875,124.812515 44.799206,125.780212 
z"/> -->
<path fill="white" opacity="1.000000" stroke="none" 
	d="
M1.000000,53.250000 
	C1.154267,53.249599 1.308533,53.499203 1.231400,53.874401 
	C1.000000,54.000000 1.000000,53.500000 1.000000,53.250000 
z"/>
<path fill="white" opacity="1.000000" stroke="none" 
	d="
M56.250000,129.000000 
	C56.261772,128.828003 56.523540,128.656006 56.892654,128.742004 
	C57.000000,129.000000 56.500000,129.000000 56.250000,129.000000 
z"/>
<path fill="#010101" opacity="1.000000" stroke="none" 
	d="
M72.250000,129.000000 
	C72.402596,128.825134 72.805191,128.650269 73.103897,128.737701 
	C73.000000,129.000000 72.500000,129.000000 72.250000,129.000000 
z"/>
<path fill="white" opacity="1.000000" stroke="none" 
	d="
M45.080025,125.497154 
	C40.032875,124.812515 35.145771,124.235046 30.522757,122.804276 
	C16.398703,118.433037 7.354264,106.834488 6.007576,92.018654 
	C5.936111,91.232430 5.484509,90.480751 5.129083,89.310425 
	C5.654283,83.856903 6.014864,78.762207 6.905977,73.762077 
	C12.813610,40.613594 46.659225,8.867594 78.349960,5.784509 
	C79.486595,5.673929 80.586128,5.181890 81.940765,4.564095 
	C90.798126,5.168592 99.563141,5.461731 107.220764,10.346679 
	C115.975182,15.931297 121.879494,23.603737 123.891060,33.877449 
	C124.859184,38.821930 125.193512,43.890507 125.758865,49.298225 
	C125.141579,50.748173 124.220261,51.754436 124.071205,52.864410 
	C119.364372,87.913811 83.819061,121.616684 50.749653,124.266487 
	C48.939693,124.411514 47.156494,124.890541 45.080025,125.497154 
M82.493011,56.861794 
	C83.488594,56.927605 84.626045,56.702488 85.456291,57.107357 
	C90.162773,59.402493 92.104012,57.116028 92.956863,52.810429 
	C93.172905,51.719791 93.407249,50.632778 93.706154,49.192459 
	C84.755562,45.907017 76.142952,45.611927 68.101097,50.576050 
	C57.151543,57.335052 57.490612,70.150558 68.514465,76.885689 
	C69.932617,77.752129 71.377029,78.577827 72.831879,79.381493 
	C75.975601,81.118126 78.229134,83.419647 77.341629,87.345909 
	C76.355904,91.706757 72.850578,92.525955 69.207565,92.199318 
	C65.159302,91.836365 61.167599,90.842537 56.915600,90.081184 
	C56.353088,91.541359 55.949898,92.982391 55.269711,94.278015 
	C53.390079,97.858322 54.544537,99.655251 58.334576,100.687134 
	C66.852173,103.006134 75.115692,103.084572 82.979805,98.577736 
	C93.089424,92.784004 93.739258,79.026405 84.213150,72.415405 
	C81.485703,70.522591 78.316566,69.189278 75.848526,67.029640 
	C74.457161,65.812141 73.170883,63.247658 73.500366,61.628345 
	C73.844109,59.938988 76.022263,58.407722 77.717247,57.291439 
	C78.690033,56.650784 80.296135,56.971756 82.493011,56.861794 
M52.000576,48.733021 
	C42.280579,48.887337 44.279839,47.588238 42.375778,56.620346 
	C40.769020,64.242149 39.512356,71.939178 38.173523,79.615608 
	C36.961720,86.563660 35.848316,93.528877 34.571503,101.208427 
	C37.840012,101.208427 40.302471,101.032478 42.729599,101.250282 
	C46.242676,101.565536 47.774376,100.317764 48.118851,96.639244 
	C48.549606,92.039268 49.709999,87.508713 50.533001,82.944145 
	C52.355541,72.835876 54.205746,62.732239 55.945805,52.609718 
	C56.328144,50.385513 57.050495,47.494373 52.000576,48.733021 
M59.841190,31.123035 
	C59.437382,30.404137 59.134628,29.600046 58.612602,28.980806 
	C56.103745,26.004753 53.018616,25.562693 49.675358,27.332977 
	C45.778236,29.396544 45.156601,32.987362 46.150402,36.770306 
	C47.033344,40.131275 49.773876,41.371738 53.128231,41.043037 
	C57.131298,40.650776 59.402290,38.330074 60.007881,34.395386 
	C60.132076,33.588482 59.993587,32.741146 59.841190,31.123035 
z"/>
<path fill="#96989B" opacity="1.000000" stroke="none" 
	d="
M82.055069,56.860809 
	C80.296135,56.971756 78.690033,56.650784 77.717247,57.291439 
	C76.022263,58.407722 73.844109,59.938988 73.500366,61.628345 
	C73.170883,63.247658 74.457161,65.812141 75.848526,67.029640 
	C78.316566,69.189278 81.485703,70.522591 84.213150,72.415405 
	C93.739258,79.026405 93.089424,92.784004 82.979805,98.577736 
	C75.115692,103.084572 66.852173,103.006134 58.334576,100.687134 
	C54.544537,99.655251 53.390079,97.858322 55.269711,94.278015 
	C55.949898,92.982391 56.353088,91.541359 56.915600,90.081184 
	C61.167599,90.842537 65.159302,91.836365 69.207565,92.199318 
	C72.850578,92.525955 76.355904,91.706757 77.341629,87.345909 
	C78.229134,83.419647 75.975601,81.118126 72.831879,79.381493 
	C71.377029,78.577827 69.932617,77.752129 68.514465,76.885689 
	C57.490612,70.150558 57.151543,57.335052 68.101097,50.576050 
	C76.142952,45.611927 84.755562,45.907017 93.706154,49.192459 
	C93.407249,50.632778 93.172905,51.719791 92.956863,52.810429 
	C92.104012,57.116028 90.162773,59.402493 85.456291,57.107357 
	C84.626045,56.702488 83.488594,56.927605 82.055069,56.860809 
z"/>
<path fill="#96989B" opacity="1.000000" stroke="none" 
	d="
M52.430069,48.707649 
	C57.050495,47.494373 56.328144,50.385513 55.945805,52.609718 
	C54.205746,62.732239 52.355541,72.835876 50.533001,82.944145 
	C49.709999,87.508713 48.549606,92.039268 48.118851,96.639244 
	C47.774376,100.317764 46.242676,101.565536 42.729599,101.250282 
	C40.302471,101.032478 37.840012,101.208427 34.571503,101.208427 
	C35.848316,93.528877 36.961720,86.563660 38.173523,79.615608 
	C39.512356,71.939178 40.769020,64.242149 42.375778,56.620346 
	C44.279839,47.588238 42.280579,48.887337 52.430069,48.707649 
z"/>
<path fill="#97999C" opacity="1.000000" stroke="none" 
	d="
M59.908684,31.517742 
	C59.993587,32.741146 60.132076,33.588482 60.007881,34.395386 
	C59.402290,38.330074 57.131298,40.650776 53.128231,41.043037 
	C49.773876,41.371738 47.033344,40.131275 46.150402,36.770306 
	C45.156601,32.987362 45.778236,29.396544 49.675358,27.332977 
	C53.018616,25.562693 56.103745,26.004753 58.612602,28.980806 
	C59.134628,29.600046 59.437382,30.404137 59.908684,31.517742 
z"/>
</svg>